<svg xmlns="http://www.w3.org/2000/svg" width="56.848" height="63.158" viewBox="0 0 56.848 63.158">
  <g id="Group_5849" data-name="Group 5849" transform="translate(-6.356 6.513) rotate(-9)">
    <path id="Path_27515" data-name="Path 27515" d="M2.221,25.18A1.334,1.334,0,0,1,.9,24.04C-.978,11.491.084,3.752,4.059,1.039c3.335-2.278,7.188-.114,7.353-.02A1.336,1.336,0,0,1,10.087,3.34c-.051-.025-2.6-1.418-4.533-.083C3.842,4.437,1.3,8.66,3.546,23.646a1.337,1.337,0,0,1-1.125,1.52,1.355,1.355,0,0,1-.2.015" transform="translate(29.551 0)" fill="#8e6234"/>
    <path id="Path_27516" data-name="Path 27516" d="M42.626,22.045c0,12.174-9.542,22.045-21.314,22.045S0,34.219,0,22.045,9.542,0,21.312,0,42.626,9.871,42.626,22.045" transform="translate(0 40.629) rotate(-59)" fill="#f27e23"/>
    <path id="Path_27517" data-name="Path 27517" d="M2.124,23.451A1.338,1.338,0,0,1,.837,22.47C-.864,16.326.061,10.109,3.31,5.836,6.213,2.018,10.61,0,16.02,0a1.338,1.338,0,1,1,0,2.675c-4.544,0-8.2,1.654-10.581,4.781-2.748,3.611-3.5,8.956-2.025,14.3a1.338,1.338,0,0,1-.93,1.646,1.363,1.363,0,0,1-.359.048" transform="translate(15.349 11.6)" fill="#e33b21"/>
  </g>
</svg>
