<svg xmlns="http://www.w3.org/2000/svg" width="111.433" height="43.232" viewBox="0 0 111.433 43.232">
  <g id="Group_5857" data-name="Group 5857" transform="translate(-1323.543 -3696.803)">
    <g id="Group_5855" data-name="Group 5855" transform="translate(1404.273 3698.203)">
      <path id="Path_27776" data-name="Path 27776" d="M439.988,9.172c-3.328-4.379-10.466-5.224-10.77-5.257a1.1,1.1,0,0,0-.769.2.888.888,0,0,0-.375.633c-.025.272-.553,6.675,3.579,10.472a11.062,11.062,0,0,0,7.765,2.677c.264,0,.534,0,.8-.017a1,1,0,0,0,.937-.679,8.619,8.619,0,0,0-1.172-8.024" transform="translate(-424.986 -3.907)" fill="#97a32a"/>
      <path id="Path_27777" data-name="Path 27777" d="M435.343,23.186a.892.892,0,0,1-.938-.837c0-8.409,1.625-13.373,4.832-14.756a5.933,5.933,0,0,1,5.36.7.776.776,0,0,1,.153,1.174,1.015,1.015,0,0,1-1.315.14,3.935,3.935,0,0,0-3.392-.507c-1.4.614-3.761,3.15-3.761,13.246a.892.892,0,0,1-.939.837" transform="translate(-419.994 -1.96)" fill="#8e6234"/>
      <path id="Path_27778" data-name="Path 27778" d="M441.679,39.491c-8.479,0-15.352-6.128-15.352-13.687s3.747-13.687,12.225-13.687h6.252c8.479,0,12.226,6.128,12.226,13.687s-6.873,13.687-15.351,13.687" transform="translate(-426.328 0.942)" fill="#a21221"/>
    </g>
    <g id="Group_5856" data-name="Group 5856" transform="translate(1278.252 3596.926)">
      <path id="Path_27243" data-name="Path 27243" d="M86.557,128.243a5.193,5.193,0,0,1-3.684-1.526c-5.143-5.144-6.815-13.373-4.969-24.459a74.825,74.825,0,0,1,3.816-13.97,5.209,5.209,0,0,1,9.674,3.865c-2.631,6.621-6.373,21.978-1.154,27.2a5.209,5.209,0,0,1-3.684,8.893" transform="translate(19.422 14.866)" fill="#26452b"/>
      <path id="Path_27244" data-name="Path 27244" d="M84.324,119.229a.716.716,0,0,1-.507-.21c-3.209-3.209-4.665-8.27-4.326-15.042a.716.716,0,1,1,1.431.071c-.317,6.351,1,11.047,3.909,13.959a.717.717,0,0,1-.507,1.223" transform="translate(19.992 19.468)" fill="#97a32a"/>
    </g>
    <g id="Group_5854" data-name="Group 5854" transform="translate(1235.252 3700.322)">
      <path id="Path_27492" data-name="Path 27492" d="M75.777,34.824a.887.887,0,0,1-.293-.049.9.9,0,0,1-.552-1.139c.276-.8,6.9-19.58,17.005-22.962a2.4,2.4,0,0,1,2.155.313c4.151,2.788,5.435,20.837,5.568,22.886a.894.894,0,0,1-.834.95.909.909,0,0,1-.95-.836c-.48-7.4-2.2-19.783-4.781-21.514a.6.6,0,0,0-.59-.1c-9.282,3.1-15.817,21.664-15.883,21.851a.9.9,0,0,1-.845.6" transform="translate(20.035 -2.488)" fill="#8e6234"/>
      <path id="Path_27493" data-name="Path 27493" d="M93.4,13.754c-.937-3.443-2.764-5.85-5.437-7.157-5.292-2.587-11.926.13-12.2.247a.857.857,0,0,0-.468.481A.849.849,0,0,0,75.312,8c.128.275,3.228,6.738,8.89,8.365a9.266,9.266,0,0,0,2.581.368,11.556,11.556,0,0,0,6.25-2.032.853.853,0,0,0,.363-.943" transform="translate(20.215 -5.148)" fill="#26452b"/>
      <path id="Path_27494" data-name="Path 27494" d="M85.579,28.555a7.525,7.525,0,1,1-7.52-7.778,7.652,7.652,0,0,1,7.52,7.778" transform="translate(17.752 2.888)" fill="#a21221"/>
      <path id="Path_27495" data-name="Path 27495" d="M100.652,28.555a7.525,7.525,0,1,1-7.52-7.778,7.652,7.652,0,0,1,7.52,7.778" transform="translate(25.671 2.888)" fill="#a21221"/>
    </g>
  </g>
</svg>
