<svg xmlns="http://www.w3.org/2000/svg" xmlns:xlink="http://www.w3.org/1999/xlink" width="52.862" height="47.099" viewBox="0 0 52.862 47.099">
  <defs>
    <clipPath id="clip-path">
      <rect id="Rectangle_647" data-name="Rectangle 647" width="52.862" height="47.099" fill="none"/>
    </clipPath>
    <clipPath id="clip-path-3">
      <rect id="Rectangle_639" data-name="Rectangle 639" width="2.284" height="3.655" fill="none"/>
    </clipPath>
    <clipPath id="clip-path-4">
      <rect id="Rectangle_638" data-name="Rectangle 638" width="2.282" height="3.655" fill="none"/>
    </clipPath>
    <clipPath id="clip-path-5">
      <rect id="Rectangle_641" data-name="Rectangle 641" width="2.077" height="3.746" fill="none"/>
    </clipPath>
    <clipPath id="clip-path-6">
      <rect id="Rectangle_640" data-name="Rectangle 640" width="2.076" height="3.746" fill="none"/>
    </clipPath>
    <clipPath id="clip-path-7">
      <rect id="Rectangle_643" data-name="Rectangle 643" width="4" height="1.382" fill="none"/>
    </clipPath>
  </defs>
  <g id="Group_5757" data-name="Group 5757" clip-path="url(#clip-path)">
    <g id="Group_5756" data-name="Group 5756" transform="translate(0 0)">
      <g id="Group_5755" data-name="Group 5755" clip-path="url(#clip-path)">
        <path id="Path_27685" data-name="Path 27685" d="M47.764,4.548H10.249V1a1,1,0,0,1,1-1h35.52a1,1,0,0,1,1,1Z" transform="translate(-2.777 0)" fill="#f8ae53"/>
        <path id="Path_27686" data-name="Path 27686" d="M18.069,0H11.248a1,1,0,0,0-1,1v3.55h6.821V1a1,1,0,0,1,1-1" transform="translate(-2.777 0)" fill="#f18a47"/>
        <path id="Path_27687" data-name="Path 27687" d="M49.437,52.667H6.171a1.1,1.1,0,0,1-1.1-1.1V20.552H50.541V51.564a1.1,1.1,0,0,1-1.1,1.1" transform="translate(-1.373 -5.568)" fill="#f8ae53"/>
        <path id="Path_27688" data-name="Path 27688" d="M11.889,28.054H50.541v-7.5H5.068V51.564a1.1,1.1,0,0,0,1.1,1.1h5.718Z" transform="translate(-1.373 -5.568)" fill="#f18a47"/>
        <rect id="Rectangle_634" data-name="Rectangle 634" width="30.694" height="10.914" transform="translate(3.695 24.362)" fill="#ba6117"/>
        <rect id="Rectangle_635" data-name="Rectangle 635" width="6.821" height="10.914" transform="translate(3.695 24.362)" fill="#a04d16"/>
        <rect id="Rectangle_636" data-name="Rectangle 636" width="12.505" height="22.737" transform="translate(34.389 24.362)" fill="#ba6117"/>
        <path id="Path_27689" data-name="Path 27689" d="M51.725,26.236H1.137A1.137,1.137,0,0,1,0,25.1V20.552H52.862V25.1a1.137,1.137,0,0,1-1.137,1.137" transform="translate(0 -5.568)" fill="#00a2de"/>
        <path id="Path_27690" data-name="Path 27690" d="M7.473,6.081,0,16.631H52.862L44.988,6.081Z" transform="translate(0 -1.648)" fill="#008ec5"/>
        <path id="Path_27691" data-name="Path 27691" d="M49.506,54.171V36.664a.909.909,0,0,1,.908-.91h7.276a.91.91,0,0,1,.909.91V54.171a.909.909,0,0,1-.909.909H50.414a.909.909,0,0,1-.908-.909" transform="translate(-13.412 -9.686)" fill="#fffdee"/>
        <path id="Path_27692" data-name="Path 27692" d="M6.821,25.1V20.551H0V25.1a1.137,1.137,0,0,0,1.137,1.137H7.957A1.137,1.137,0,0,1,6.821,25.1" transform="translate(0 -5.568)" fill="#008ec5"/>
        <path id="Path_27693" data-name="Path 27693" d="M7.473,6.081,0,16.631H6.821l7.472-10.55Z" transform="translate(0 -1.648)" fill="#007db4"/>
        <path id="Path_27694" data-name="Path 27694" d="M7.406,42.348V36.664a.91.91,0,0,1,.909-.91H33.78a.91.91,0,0,1,.91.91v5.684a.91.91,0,0,1-.91.909H8.315a.909.909,0,0,1-.909-.909" transform="translate(-2.006 -9.686)" fill="#fffdee"/>
        <path id="Path_27695" data-name="Path 27695" d="M8.247,43.531a.6.6,0,0,0-.6.6v.09a.676.676,0,0,0-.952.957.6.6,0,0,0,.058,1.191H6.9v.746H8.843V44.127a.6.6,0,0,0-.6-.6" transform="translate(-1.669 -11.793)" fill="#00853c"/>
        <path id="Path_27696" data-name="Path 27696" d="M12.087,45.621l.046-.046a.782.782,0,0,0-1-1.194v-.1a.746.746,0,1,0-1.492,0v.1a.782.782,0,0,0-1,1.194l.046.046a.746.746,0,0,0,.06,1.49.148.148,0,0,1,.149.149V48.3h2.983V47.26a.148.148,0,0,1,.149-.149.746.746,0,0,0,.06-1.49" transform="translate(-2.167 -11.793)" fill="#009c3d"/>
        <path id="Path_27697" data-name="Path 27697" d="M11.034,46.323h-.3v-.149a.3.3,0,1,0-.6,0v.149h-.3v-.149a.6.6,0,0,1,1.194,0Z" transform="translate(-2.666 -12.348)" fill="#00853c"/>
        <path id="Path_27698" data-name="Path 27698" d="M11.98,47.141h-.3a.747.747,0,0,1,.746-.746v.3a.448.448,0,0,0-.448.448" transform="translate(-3.165 -12.569)" fill="#00853c"/>
        <path id="Path_27699" data-name="Path 27699" d="M12.917,43.531a.6.6,0,0,0-.6.6v.09a.676.676,0,0,0-.952.957.6.6,0,0,0,.057,1.191h.149v.746h1.939V44.127a.6.6,0,0,0-.6-.6" transform="translate(-2.934 -11.793)" fill="#00853c"/>
        <path id="Path_27700" data-name="Path 27700" d="M16.756,45.621l.046-.046a.782.782,0,0,0-1-1.194v-.1a.746.746,0,0,0-1.492,0v.1a.782.782,0,0,0-1,1.194l.046.046a.746.746,0,0,0,.061,1.49.148.148,0,0,1,.148.149V48.3h2.983V47.26a.148.148,0,0,1,.149-.149.746.746,0,0,0,.06-1.49" transform="translate(-3.433 -11.793)" fill="#009c3d"/>
        <path id="Path_27701" data-name="Path 27701" d="M15.7,46.323h-.3v-.149a.3.3,0,1,0-.6,0v.149h-.3v-.149a.6.6,0,0,1,1.194,0Z" transform="translate(-3.931 -12.348)" fill="#00853c"/>
        <path id="Path_27702" data-name="Path 27702" d="M16.65,47.141h-.3A.746.746,0,0,1,17.1,46.4v.3a.448.448,0,0,0-.448.448" transform="translate(-4.43 -12.569)" fill="#00853c"/>
        <path id="Path_27703" data-name="Path 27703" d="M33.26,47.806a1.692,1.692,0,0,1-1.872,1.648c-.048,0-.095,0-.142-.005a1.669,1.669,0,0,1-1.7-1.67,1.852,1.852,0,0,1,.553-1.3.916.916,0,0,0,.265-.531l0-.016a1.08,1.08,0,0,1,1.037-.9h.006a1.08,1.08,0,0,1,1.031.9v.008a1,1,0,0,0,.278.55,1.851,1.851,0,0,1,.542,1.312" transform="translate(-8.004 -12.2)" fill="#8bc053"/>
        <path id="Path_27704" data-name="Path 27704" d="M31.407,45.033l-.013.394a.634.634,0,0,0-.2.466c-.052.872-.731,1.183-.731,2.063a1.467,1.467,0,0,0,.781,1.492h0a1.669,1.669,0,0,1-1.7-1.67,1.854,1.854,0,0,1,.553-1.3.918.918,0,0,0,.265-.531l0-.016a1.078,1.078,0,0,1,1.037-.9Z" transform="translate(-8.004 -12.2)" fill="#7bba49"/>
        <path id="Path_27705" data-name="Path 27705" d="M31.939,44.97h-.017a.1.1,0,0,1-.079-.112c0-.009.15-.886-.216-1.251a.1.1,0,0,1,.137-.138c.437.437.277,1.382.27,1.422a.1.1,0,0,1-.1.08" transform="translate(-8.561 -11.768)" fill="#cb5816"/>
        <path id="Path_27706" data-name="Path 27706" d="M31.783,45.331c.058,0,.095,0,.129,0s.061,0,.089,0,.055,0,.089,0,.071,0,.129,0a.175.175,0,0,1-.071.137.241.241,0,0,1-.295,0,.177.177,0,0,1-.071-.137" transform="translate(-8.61 -12.279)" fill="#7bba49"/>
        <path id="Path_27707" data-name="Path 27707" d="M32.336,44.085a.61.61,0,0,1-.505-.242.071.071,0,0,1,.02-.1.071.071,0,0,1,.1.02.514.514,0,0,0,.585.149.071.071,0,0,1,.037.138.906.906,0,0,1-.235.034" transform="translate(-8.62 -11.848)" fill="#cb5816"/>
        <path id="Path_27708" data-name="Path 27708" d="M33.77,44.012l.484-.511-.64-.292a.741.741,0,0,0-1,.42l-.013.037a.3.3,0,0,0,.059.3l.026.028a.74.74,0,0,0,1.088.014" transform="translate(-8.826 -11.688)" fill="#009f5f"/>
        <path id="Path_27709" data-name="Path 27709" d="M35.816,48.237a1.692,1.692,0,0,1-2.318.922c-.044-.016-.088-.034-.132-.052a1.668,1.668,0,0,1-1.04-2.146,1.856,1.856,0,0,1,.957-1.035.914.914,0,0,0,.429-.41l.008-.014A1.079,1.079,0,0,1,35,45H35a1.08,1.08,0,0,1,.667,1.2v.007a1,1,0,0,0,.076.612,1.848,1.848,0,0,1,.069,1.417" transform="translate(-8.728 -12.176)" fill="#8bc053"/>
        <path id="Path_27710" data-name="Path 27710" d="M35,45.095l-.145.367a.637.637,0,0,0-.342.373c-.343.8-1.087.867-1.384,1.7a1.466,1.466,0,0,0,.233,1.668,1.669,1.669,0,0,1-1.041-2.146,1.853,1.853,0,0,1,.958-1.034.918.918,0,0,0,.429-.41l.007-.014a1.078,1.078,0,0,1,1.28-.5Z" transform="translate(-8.728 -12.201)" fill="#7bba49"/>
        <path id="Path_27711" data-name="Path 27711" d="M35.813,45.014l-.015-.007a.1.1,0,0,1-.036-.132c0-.008.44-.784.219-1.25a.1.1,0,1,1,.176-.083c.264.558-.206,1.394-.226,1.429a.1.1,0,0,1-.117.044" transform="translate(-9.685 -11.781)" fill="#cb5816"/>
        <path id="Path_27712" data-name="Path 27712" d="M35.637,45.294c.054.019.09.031.123.04s.058.018.085.027.052.02.082.033l.12.047a.176.176,0,0,1-.113.1.236.236,0,0,1-.155,0,.243.243,0,0,1-.122-.1.177.177,0,0,1-.02-.153" transform="translate(-9.652 -12.271)" fill="#7bba49"/>
        <path id="Path_27713" data-name="Path 27713" d="M36.572,44.311a.611.611,0,0,1-.394-.4.071.071,0,0,1,.139-.034.515.515,0,0,0,.5.338.071.071,0,1,1-.011.141.868.868,0,0,1-.233-.047" transform="translate(-9.8 -11.873)" fill="#cb5816"/>
        <path id="Path_27714" data-name="Path 27714" d="M37.873,44.794l.628-.319-.5-.491a.74.74,0,0,0-1.086.058l-.025.03a.3.3,0,0,0-.047.307l.015.036a.741.741,0,0,0,1.02.379" transform="translate(-9.974 -11.859)" fill="#009f5f"/>
        <path id="Path_27715" data-name="Path 27715" d="M34.464,49.12a1.692,1.692,0,0,1-1.954,1.55c-.048,0-.095-.007-.141-.012A1.669,1.669,0,0,1,30.754,48.9a1.856,1.856,0,0,1,.62-1.266.916.916,0,0,0,.292-.516l0-.016a1.078,1.078,0,0,1,1.081-.848h.006a1.079,1.079,0,0,1,.983.955v.007a1,1,0,0,0,.249.564,1.853,1.853,0,0,1,.474,1.338" transform="translate(-8.33 -12.531)" fill="#8bc053"/>
        <path id="Path_27716" data-name="Path 27716" d="M32.757,46.253l-.034.393a.637.637,0,0,0-.22.456c-.1.868-.791,1.143-.836,2.022a1.465,1.465,0,0,0,.7,1.531h0A1.669,1.669,0,0,1,30.755,48.9a1.851,1.851,0,0,1,.619-1.266.922.922,0,0,0,.293-.516l0-.016a1.078,1.078,0,0,1,1.082-.848Z" transform="translate(-8.331 -12.53)" fill="#7bba49"/>
        <path id="Path_27717" data-name="Path 27717" d="M33.341,46.28l-.017,0a.1.1,0,0,1-.073-.117c0-.009.2-.876-.151-1.261a.1.1,0,0,1,.144-.13c.414.459.2,1.394.2,1.434a.1.1,0,0,1-.1.075" transform="translate(-8.961 -12.12)" fill="#cb5816"/>
        <path id="Path_27718" data-name="Path 27718" d="M33.17,46.634c.057,0,.095,0,.129,0s.061,0,.089,0l.088.007c.034,0,.072.007.129.011a.173.173,0,0,1-.077.133.238.238,0,0,1-.15.042.235.235,0,0,1-.144-.058.176.176,0,0,1-.064-.141" transform="translate(-8.986 -12.634)" fill="#7bba49"/>
        <path id="Path_27719" data-name="Path 27719" d="M33.784,45.416a.611.611,0,0,1-.492-.268.071.071,0,1,1,.122-.073.514.514,0,0,0,.576.18.071.071,0,1,1,.031.139.871.871,0,0,1-.237.022" transform="translate(-9.017 -12.202)" fill="#cb5816"/>
        <path id="Path_27720" data-name="Path 27720" d="M35.21,45.43l.51-.486-.625-.325a.741.741,0,0,0-1.024.368l-.015.036a.3.3,0,0,0,.044.306l.025.031a.74.74,0,0,0,1.086.069" transform="translate(-9.22 -12.065)" fill="#009f5f"/>
        <path id="Path_27721" data-name="Path 27721" d="M43.93,45.4a1.541,1.541,0,0,1-.284.976,1.085,1.085,0,0,1-.827.466h-.065L42.7,45.5l-.061-1.443.056,0H42.7a1.018,1.018,0,0,1,.548.136A1.446,1.446,0,0,1,43.93,45.4" transform="translate(-11.551 -11.935)" fill="#f6a323"/>
        <path id="Path_27722" data-name="Path 27722" d="M42.7,45.5l-.061-1.443a.628.628,0,0,1,.066-.005,1.012,1.012,0,0,1,.547.136.664.664,0,0,0,.034.644c.182.378-.254.576-.585.669" transform="translate(-11.551 -11.935)" fill="#f3910e"/>
        <path id="Path_27723" data-name="Path 27723" d="M43.672,46.993a1.087,1.087,0,0,1-.827.466h-.065l-.047-1.121.607.35a.292.292,0,0,0,.331.3" transform="translate(-11.577 -12.554)" fill="#f3910e"/>
        <path id="Path_27724" data-name="Path 27724" d="M42.393,43.925a.063.063,0,0,1-.063-.065.558.558,0,0,0-.283-.491.972.972,0,0,0-.293-.126.064.064,0,0,1,.027-.125,1.1,1.1,0,0,1,.336.144.688.688,0,0,1,.34.6.064.064,0,0,1-.064.063" transform="translate(-11.298 -11.681)" fill="#009c57"/>
        <path id="Path_27725" data-name="Path 27725" d="M43.472,45.419a1.666,1.666,0,0,1-.661,1.422h-.056L42.7,45.5l-.061-1.444.056,0a1.665,1.665,0,0,1,.777,1.363" transform="translate(-11.551 -11.936)" fill="#f3910e"/>
        <path id="Path_27726" data-name="Path 27726" d="M42.741,45.386a1.746,1.746,0,0,1-.405,1.194.922.922,0,0,1-.6.354h-.012a1.5,1.5,0,0,1-.125-3.006h.011c.475-.009,1.093.634,1.127,1.458" transform="translate(-10.88 -11.901)" fill="#f6a323"/>
        <path id="Path_27727" data-name="Path 27727" d="M40.768,45.469a1.505,1.505,0,0,1,1.067-1.5.625.625,0,0,0-.22-.038H41.6a1.5,1.5,0,1,0,.125,3.006h.011a.639.639,0,0,0,.217-.056,1.506,1.506,0,0,1-1.188-1.409" transform="translate(-10.88 -11.901)" fill="#f3910e"/>
        <path id="Path_27728" data-name="Path 27728" d="M40.856,45.275a1.329,1.329,0,0,1-.261-1.175c.217-.55.975-.523,1.078-.7a.081.081,0,0,0,.01-.025h0a1.055,1.055,0,0,1-.007,1.078c-.359.455-.766.508-.82.826" transform="translate(-10.981 -11.75)" fill="#009f5f"/>
        <path id="Path_27729" data-name="Path 27729" d="M41.771,43.348a.043.043,0,0,0-.048.037.861.861,0,0,1-.389.652l-.047.039-.136.006a.042.042,0,0,0-.041.044.043.043,0,0,0,.044.041h.03a1.011,1.011,0,0,0-.152.182,1.1,1.1,0,0,0-.154.574.042.042,0,0,0,.042.044h0a.043.043,0,0,0,.041-.042,1.2,1.2,0,0,1,.042-.3l.02.035a.042.042,0,0,0,.039.022.044.044,0,0,0,.019-.006.043.043,0,0,0,.016-.058l-.058-.1a.758.758,0,0,1,.063-.121,1.179,1.179,0,0,1,.284-.289c.034-.028.069-.055.1-.085l0,.049a.043.043,0,0,0,.044.041.043.043,0,0,0,.041-.044l-.005-.125a.919.919,0,0,0,.236-.544.043.043,0,0,0-.037-.048" transform="translate(-11.074 -11.744)" fill="#009c57"/>
        <path id="Path_27730" data-name="Path 27730" d="M42.614,47.475a.926.926,0,0,1-.6.354h-.012a1.5,1.5,0,0,1-.82-.2l.181-.394a1.092,1.092,0,0,0,1.248.244" transform="translate(-11.157 -12.796)" fill="#f3910e"/>
        <rect id="Rectangle_637" data-name="Rectangle 637" width="6.821" height="1.477" transform="translate(3.695 35.276)" fill="#f09f1c"/>
        <path id="Path_27731" data-name="Path 27731" d="M44.958,47.979a1.539,1.539,0,0,1-.773.659,1.087,1.087,0,0,1-.946-.065l-.007,0-.047-.031.688-1.148.742-1.239c.017.008.034.018.05.027l.007,0a1.018,1.018,0,0,1,.383.414,1.446,1.446,0,0,1-.1,1.382" transform="translate(-11.699 -12.503)" fill="#f6a323"/>
        <path id="Path_27732" data-name="Path 27732" d="M44.128,47.39l.743-1.239.057.031a1.016,1.016,0,0,1,.383.414.664.664,0,0,0-.326.556c-.056.416-.529.342-.857.237" transform="translate(-11.955 -12.503)" fill="#f3910e"/>
        <path id="Path_27733" data-name="Path 27733" d="M44.185,49.167a1.089,1.089,0,0,1-.947-.065l-.055-.035h0l.577-.962.316.626a.292.292,0,0,0,.109.436" transform="translate(-11.699 -13.032)" fill="#f3910e"/>
        <path id="Path_27734" data-name="Path 27734" d="M45,45.91a.064.064,0,0,1-.018-.089.56.56,0,0,0,.034-.566,1,1,0,0,0-.176-.267.064.064,0,1,1,.091-.09,1.091,1.091,0,0,1,.2.3.689.689,0,0,1-.045.689A.064.064,0,0,1,45,45.91" transform="translate(-12.143 -12.159)" fill="#009c57"/>
        <path id="Path_27735" data-name="Path 27735" d="M44.565,47.743a1.664,1.664,0,0,1-1.334.825l-.047-.031.688-1.148.743-1.239.049.027a1.666,1.666,0,0,1-.1,1.565" transform="translate(-11.699 -12.503)" fill="#f3910e"/>
        <path id="Path_27736" data-name="Path 27736" d="M44.106,47.528a1.748,1.748,0,0,1-.994.774.919.919,0,0,1-.693-.032l-.01-.006a1.5,1.5,0,0,1,1.547-2.58l.009.006a1.455,1.455,0,0,1,.141,1.838" transform="translate(-11.291 -12.319)" fill="#f6a323"/>
        <path id="Path_27737" data-name="Path 27737" d="M42.41,46.512a1.506,1.506,0,0,1,1.717-.669.618.618,0,0,0-.163-.152l-.009-.006a1.5,1.5,0,0,0-1.547,2.58l.01.006a.641.641,0,0,0,.211.072,1.505,1.505,0,0,1-.219-1.83" transform="translate(-11.291 -12.319)" fill="#f3910e"/>
        <path id="Path_27738" data-name="Path 27738" d="M42.7,46.374a1.327,1.327,0,0,1,.427-1.125c.484-.34,1.1.1,1.287.005a.085.085,0,0,0,.023-.016c0,.022-.056.716-.6.9s-.919,0-1.139.24" transform="translate(-11.567 -12.223)" fill="#009f5f"/>
        <path id="Path_27739" data-name="Path 27739" d="M44.489,45.256a.044.044,0,0,0-.061,0,.861.861,0,0,1-.683.331l-.061.006-.117-.07a.042.042,0,0,0-.058.015.043.043,0,0,0,.015.059l.026.015a.948.948,0,0,0-.227.069,1.106,1.106,0,0,0-.444.394.044.044,0,0,0,.011.06h0a.044.044,0,0,0,.057-.012,1.247,1.247,0,0,1,.2-.229l0,.04a.042.042,0,0,0,.02.039.037.037,0,0,0,.02.006.043.043,0,0,0,.045-.04l.007-.115a.846.846,0,0,1,.119-.067,1.219,1.219,0,0,1,.4-.086l.132-.015-.026.042a.043.043,0,0,0,.015.058.043.043,0,0,0,.059-.015L44,45.641a.91.91,0,0,0,.5-.324.042.042,0,0,0,0-.061" transform="translate(-11.614 -12.258)" fill="#009c57"/>
        <path id="Path_27740" data-name="Path 27740" d="M43.17,49.025a.924.924,0,0,1-.693-.032l-.009-.006a1.506,1.506,0,0,1-.574-.62l.367-.23s.163.844.909.889" transform="translate(-11.349 -13.041)" fill="#f3910e"/>
        <path id="Path_27741" data-name="Path 27741" d="M42.158,45.91a1.539,1.539,0,0,1,.511.877,1.086,1.086,0,0,1-.232.92l-.006.007c-.012.015-.026.028-.039.042l-1.008-.881L40.3,45.923c.012-.015.023-.03.036-.044l.006-.007a1.01,1.01,0,0,1,.475-.3,1.442,1.442,0,0,1,1.343.34" transform="translate(-10.917 -12.332)" fill="#f6a323"/>
        <path id="Path_27742" data-name="Path 27742" d="M41.385,46.892,40.3,45.941l.041-.05a1.023,1.023,0,0,1,.476-.3.665.665,0,0,0,.489.42c.4.129.242.581.081.885" transform="translate(-10.917 -12.35)" fill="#f3910e"/>
        <path id="Path_27743" data-name="Path 27743" d="M43.134,47.258a1.087,1.087,0,0,1-.232.92c-.015.017-.029.032-.044.047h0l-.844-.739.672-.2a.292.292,0,0,0,.448-.03" transform="translate(-11.382 -12.803)" fill="#f3910e"/>
        <path id="Path_27744" data-name="Path 27744" d="M40.039,46.073a.064.064,0,0,1-.09,0,.56.56,0,0,0-.551-.134.965.965,0,0,0-.293.125.064.064,0,1,1-.073-.106,1.11,1.11,0,0,1,.336-.144.688.688,0,0,1,.67.167.064.064,0,0,1,0,.09" transform="translate(-10.567 -12.406)" fill="#009c57"/>
        <path id="Path_27745" data-name="Path 27745" d="M41.856,46.367a1.666,1.666,0,0,1,.575,1.459c-.012.014-.026.028-.039.041h0l-1.007-.881L40.3,46.035a.52.52,0,0,1,.036-.044,1.663,1.663,0,0,1,1.522.375" transform="translate(-10.917 -12.444)" fill="#f3910e"/>
        <path id="Path_27746" data-name="Path 27746" d="M41.559,46.428a1.75,1.75,0,0,1,.585,1.116.918.918,0,0,1-.155.676l-.007.009a1.5,1.5,0,1,1-2.264-1.981l.007-.008a1.455,1.455,0,0,1,1.834.188" transform="translate(-10.659 -12.461)" fill="#f6a323"/>
        <path id="Path_27747" data-name="Path 27747" d="M40.258,47.957a1.5,1.5,0,0,1-.354-1.809.636.636,0,0,0-.179.133l-.007.009a1.5,1.5,0,1,0,2.265,1.98l.007-.008a.641.641,0,0,0,.108-.2,1.505,1.505,0,0,1-1.839-.11" transform="translate(-10.659 -12.502)" fill="#f3910e"/>
        <path id="Path_27748" data-name="Path 27748" d="M40.135,47.891a1.328,1.328,0,0,1-1.032-.62c-.249-.537.292-1.067.234-1.266a.092.092,0,0,0-.012-.024h0c.021.005.694.182.776.747s-.16.906.034,1.164" transform="translate(-10.576 -12.457)" fill="#009f5f"/>
        <path id="Path_27749" data-name="Path 27749" d="M39.405,45.966a.042.042,0,0,0-.006.06.866.866,0,0,1,.2.732c0,.02,0,.041-.005.061l-.09.1a.042.042,0,0,0,0,.06.043.043,0,0,0,.061,0l.02-.023a.984.984,0,0,0,.028.235,1.093,1.093,0,0,0,.31.507.042.042,0,0,0,.06,0l0,0a.043.043,0,0,0,0-.058,1.28,1.28,0,0,1-.19-.237l.039.009a.043.043,0,0,0,.042-.014.037.037,0,0,0,.009-.018.043.043,0,0,0-.031-.052l-.112-.028a.725.725,0,0,1-.044-.128,1.2,1.2,0,0,1-.015-.405c0-.044.008-.087.009-.133l.037.032a.042.042,0,0,0,.06,0,.043.043,0,0,0,0-.061l-.094-.082a.907.907,0,0,0-.231-.546.044.044,0,0,0-.061-.007" transform="translate(-10.671 -12.45)" fill="#009c57"/>
        <path id="Path_27750" data-name="Path 27750" d="M42.8,48.12a.921.921,0,0,1-.155.677l-.007.008a1.5,1.5,0,0,1-.712.454l-.161-.4s.86-.011,1.036-.736" transform="translate(-11.314 -13.036)" fill="#f3910e"/>
        <path id="Path_27751" data-name="Path 27751" d="M27.875,44.774l-.122-.1a.1.1,0,0,0-.137.015l-.7.868.228-.812a.1.1,0,0,0-.033-.1.1.1,0,0,0-.028-.016l-.152-.055a.1.1,0,0,0-.076,0,.1.1,0,0,0-.051.056l-.343,1,.737.6.918-.537a.1.1,0,0,0,.045-.061.1.1,0,0,0-.012-.075l-.085-.136a.093.093,0,0,0-.021-.023.1.1,0,0,0-.107-.011l-.748.392.7-.868a.1.1,0,0,0-.014-.138" transform="translate(-7.168 -12.074)" fill="#6fb63e"/>
        <path id="Path_27752" data-name="Path 27752" d="M23.468,49.408a.392.392,0,0,0,.5-.008l2.51-2.152a.393.393,0,0,0,.137-.3.385.385,0,0,0-.144-.3l-.943-.763a.392.392,0,0,0-.59.119l-1.584,2.9a.39.39,0,0,0,.1.491Z" transform="translate(-6.314 -12.408)" fill="#f38f25"/>
        <g id="Group_5744" data-name="Group 5744" transform="translate(16.993 33.391)" opacity="0.1">
          <g id="Group_5743" data-name="Group 5743">
            <g id="Group_5742" data-name="Group 5742" clip-path="url(#clip-path-3)">
              <g id="Group_5741" data-name="Group 5741" transform="translate(0.001)">
                <g id="Group_5740" data-name="Group 5740" clip-path="url(#clip-path-4)">
                  <path id="Path_27753" data-name="Path 27753" d="M23.468,49.408a.392.392,0,0,0,.071.045.411.411,0,0,1,.042-.275l1.654-3.029a.412.412,0,0,1,.28-.206.437.437,0,0,1,.075-.007l-.062-.05a.392.392,0,0,0-.59.119l-1.584,2.9a.39.39,0,0,0,.1.491Z" transform="translate(-23.308 -45.798)" fill="#020203"/>
                </g>
              </g>
            </g>
          </g>
        </g>
        <path id="Path_27754" data-name="Path 27754" d="M26.954,47.43a.106.106,0,0,0-.132.166l.362.29.164-.141Z" transform="translate(-7.256 -12.843)" fill="#fcc100"/>
        <path id="Path_27755" data-name="Path 27755" d="M26.468,48.074a.106.106,0,0,0-.133.166l.263.211.163-.14Z" transform="translate(-7.124 -13.018)" fill="#fcc100"/>
        <path id="Path_27756" data-name="Path 27756" d="M25.117,47.6a.106.106,0,0,0,.13-.006l.018-.019a.106.106,0,0,0-.026-.148l-.338-.239-.1.187Z" transform="translate(-6.719 -12.784)" fill="#fcc100"/>
        <path id="Path_27757" data-name="Path 27757" d="M25.226,48.97a.106.106,0,0,0-.134.164l.335.273.163-.14Z" transform="translate(-6.787 -13.26)" fill="#fcc100"/>
        <path id="Path_27758" data-name="Path 27758" d="M23.914,49.592a.106.106,0,0,0,.133,0,.081.081,0,0,0,.015-.016.1.1,0,0,0-.02-.148l-.255-.2-.1.189Z" transform="translate(-6.417 -13.336)" fill="#fcc100"/>
        <path id="Path_27759" data-name="Path 27759" d="M23.137,43.293l-.15.044a.1.1,0,0,0-.066.122l.311,1.072-.537-.651a.1.1,0,0,0-.1-.031.086.086,0,0,0-.028.014l-.132.093a.1.1,0,0,0-.04.064.1.1,0,0,0,.018.074l.628.853.91-.265.082-1.06a.1.1,0,0,0-.093-.106l-.16-.007a.1.1,0,0,0-.032,0,.1.1,0,0,0-.069.082l-.1.838-.311-1.073a.1.1,0,0,0-.121-.066" transform="translate(-6.066 -11.728)" fill="#6fb63e"/>
        <path id="Path_27760" data-name="Path 27760" d="M24.734,49.154a.391.391,0,0,0,.279-.416l-.334-3.29a.394.394,0,0,0-.171-.286.389.389,0,0,0-.327-.051l-1.164.34a.391.391,0,0,0-.239.552l1.479,2.956a.39.39,0,0,0,.458.2Z" transform="translate(-6.159 -12.217)" fill="#f38f25"/>
        <g id="Group_5749" data-name="Group 5749" transform="translate(16.576 33.212)" opacity="0.1">
          <g id="Group_5748" data-name="Group 5748">
            <g id="Group_5747" data-name="Group 5747" clip-path="url(#clip-path-5)">
              <g id="Group_5746" data-name="Group 5746" transform="translate(0 0)">
                <g id="Group_5745" data-name="Group 5745" clip-path="url(#clip-path-6)">
                  <path id="Path_27761" data-name="Path 27761" d="M24.734,49.278a.392.392,0,0,0,.078-.033.408.408,0,0,1-.2-.192l-1.544-3.087a.407.407,0,0,1-.009-.347.391.391,0,0,1,.036-.066l-.077.023a.391.391,0,0,0-.239.552l1.479,2.956a.39.39,0,0,0,.458.2Z" transform="translate(-22.736 -45.553)" fill="#020203"/>
                </g>
              </g>
            </g>
          </g>
        </g>
        <path id="Path_27762" data-name="Path 27762" d="M24.722,45.853a.106.106,0,1,0,.061.2l.445-.133-.022-.215Z" transform="translate(-6.677 -12.383)" fill="#fcc100"/>
        <path id="Path_27763" data-name="Path 27763" d="M24.973,46.634a.106.106,0,0,0,.06.2l.324-.1-.022-.214Z" transform="translate(-6.745 -12.605)" fill="#fcc100"/>
        <path id="Path_27764" data-name="Path 27764" d="M23.818,47.474a.105.105,0,0,0,.069-.11.108.108,0,0,0-.006-.026.1.1,0,0,0-.136-.063l-.389.141.1.19Z" transform="translate(-6.328 -12.806)" fill="#fcc100"/>
        <path id="Path_27765" data-name="Path 27765" d="M25,48.157a.106.106,0,1,0,.058.2l.416-.119-.021-.214Z" transform="translate(-6.752 -13.011)" fill="#fcc100"/>
        <path id="Path_27766" data-name="Path 27766" d="M24.768,49.615a.106.106,0,0,0,.074-.112.116.116,0,0,0,0-.022.106.106,0,0,0-.133-.069l-.307.1.1.192Z" transform="translate(-6.609 -13.385)" fill="#fcc100"/>
        <path id="Path_27767" data-name="Path 27767" d="M20.1,46.514l-.063.143a.1.1,0,0,0,.051.129l1.023.448-.844,0a.1.1,0,0,0-.09.058.105.105,0,0,0-.008.031l-.013.161a.1.1,0,0,0,.092.106l1.058.066.379-.868-.761-.743a.1.1,0,0,0-.071-.028.094.094,0,0,0-.069.032l-.109.117a.1.1,0,0,0-.017.027.1.1,0,0,0,.018.106l.575.618-1.022-.449a.1.1,0,0,0-.129.05" transform="translate(-5.427 -12.465)" fill="#6fb63e"/>
        <path id="Path_27768" data-name="Path 27768" d="M25.628,48.949a.391.391,0,0,0-.14-.48l-2.739-1.853a.393.393,0,0,0-.328-.052.389.389,0,0,0-.249.218l-.486,1.111a.393.393,0,0,0,.27.538l3.217.76a.391.391,0,0,0,.448-.223Z" transform="translate(-5.866 -12.611)" fill="#f38f25"/>
        <g id="Group_5754" data-name="Group 5754" transform="translate(15.787 35.209)" opacity="0.1">
          <g id="Group_5753" data-name="Group 5753">
            <g id="Group_5752" data-name="Group 5752" clip-path="url(#clip-path-7)">
              <g id="Group_5751" data-name="Group 5751">
                <g id="Group_5750" data-name="Group 5750" clip-path="url(#clip-path-7)">
                  <path id="Path_27769" data-name="Path 27769" d="M25.628,49.422a.369.369,0,0,0,.025-.081.4.4,0,0,1-.276.031l-3.359-.793a.411.411,0,0,1-.273-.216.482.482,0,0,1-.028-.07l-.031.072a.393.393,0,0,0,.27.538l3.217.76a.391.391,0,0,0,.448-.223Z" transform="translate(-21.653 -48.292)" fill="#020203"/>
                </g>
              </g>
            </g>
          </g>
        </g>
        <path id="Path_27770" data-name="Path 27770" d="M22.987,47.178a.106.106,0,1,0,.195.084l.184-.427-.179-.121Z" transform="translate(-6.225 -12.656)" fill="#fcc100"/>
        <path id="Path_27771" data-name="Path 27771" d="M23.737,47.52a.106.106,0,0,0,.195.085l.134-.309-.179-.121Z" transform="translate(-6.428 -12.78)" fill="#fcc100"/>
        <path id="Path_27772" data-name="Path 27772" d="M23.637,48.934a.106.106,0,0,0-.04-.124.116.116,0,0,0-.023-.012.105.105,0,0,0-.136.063l-.141.389.208.049Z" transform="translate(-6.311 -13.219)" fill="#fcc100"/>
        <path id="Path_27773" data-name="Path 27773" d="M24.93,48.449a.105.105,0,0,0,.054.14.107.107,0,0,0,.14-.054l.175-.4-.179-.12Z" transform="translate(-6.751 -13.009)" fill="#fcc100"/>
        <path id="Path_27774" data-name="Path 27774" d="M25.877,49.6a.105.105,0,0,0-.039-.128.1.1,0,0,0-.019-.011.107.107,0,0,0-.139.058l-.122.3.209.05Z" transform="translate(-6.924 -13.399)" fill="#fcc100"/>
        <rect id="Rectangle_644" data-name="Rectangle 644" width="23.873" height="10.346" transform="translate(10.516 36.753)" fill="#f8ae53"/>
        <rect id="Rectangle_645" data-name="Rectangle 645" width="30.694" height="1.478" transform="translate(3.695 35.276)" fill="#dc6c36"/>
      </g>
    </g>
  </g>
</svg>
