<svg xmlns="http://www.w3.org/2000/svg" width="42.027" height="56.105" viewBox="0 0 42.027 56.105">
  <g id="Group_5928" data-name="Group 5928" transform="translate(-384.487 -2931.447)">
    <g id="Group_5846" data-name="Group 5846" transform="translate(37.359 2846.342)">
      <path id="Path_27169" data-name="Path 27169" d="M122.37,41.508a.423.423,0,0,0-.767-.1c-.152.245-3.7,6.077-1.417,10.943a.423.423,0,0,0,.328.24.34.34,0,0,0,.056,0,.425.425,0,0,0,.324-.15c3.469-4.107,1.558-10.66,1.476-10.937" transform="translate(230.979 45.283)" fill="#3a462c"/>
      <path id="Path_27170" data-name="Path 27170" d="M122.578,93.069a3.453,3.453,0,0,1-3.395-2.85c-4.067-22.912-.136-40.66.033-41.4a3.452,3.452,0,0,1,6.732,1.53,109,109,0,0,0,.034,38.665,3.454,3.454,0,0,1-2.8,4,3.388,3.388,0,0,1-.607.054" transform="translate(229.781 47.984)" fill="#3a462c"/>
      <path id="Path_27171" data-name="Path 27171" d="M120.34,43.824A.391.391,0,0,0,120,43.61h0a.392.392,0,0,0-.345.206c-.122.226-2.958,5.589-.079,9.535a.391.391,0,0,0,.313.161h0a.393.393,0,0,0,.311-.155c2.97-3.878.262-9.3.144-9.534" transform="translate(229.933 46.602)" fill="#97a32a"/>
      <path id="Path_27172" data-name="Path 27172" d="M125.889,41.067a.448.448,0,0,0-.777-.293c-.214.232-5.225,5.769-4.3,11.491a.451.451,0,0,0,.285.347.459.459,0,0,0,.158.028.445.445,0,0,0,.283-.1c4.473-3.689,4.355-11.155,4.347-11.471" transform="translate(232.328 44.967)" fill="#97a32a"/>
      <path id="Path_27173" data-name="Path 27173" d="M125.763,44.395a.4.4,0,0,0-.245-.325.386.386,0,0,0-.4.063c-.2.167-4.793,4.124-3.553,8.851a.392.392,0,0,0,.232.263.373.373,0,0,0,.147.029.389.389,0,0,0,.2-.057c4.18-2.528,3.636-8.569,3.613-8.825" transform="translate(232.814 46.838)" fill="#3a462c"/>
    </g>
    <g id="Group_5852" data-name="Group 5852" transform="translate(275.676 2832.158)">
      <path id="Path_27188" data-name="Path 27188" d="M284.93,47.839a1.034,1.034,0,0,0-1.463-1.463l-3.178,3.178V47.487l4.64-4.64a1.034,1.034,0,0,0-1.463-1.463l-3.178,3.178V42.506a1.034,1.034,0,1,0-2.069,0v2.154l-3.179-3.178a1.034,1.034,0,1,0-1.463,1.461l4.642,4.642v2.069l-3.179-3.179a1.034,1.034,0,1,0-1.463,1.463l4.642,4.64v2.069l-3.179-3.179a1.034,1.034,0,1,0-1.463,1.463l4.642,4.642v5.838a1.034,1.034,0,0,0,2.069,0V57.471l4.64-4.64a1.034,1.034,0,0,0-1.463-1.463l-3.178,3.179V52.479Z" transform="translate(-136.485 58.209)" fill="#26452b"/>
      <path id="Path_27189" data-name="Path 27189" d="M276.87,52.555h6.489c3.121,0,5.483,2.451,4.926,5.114l-6.529,31.357a1.728,1.728,0,0,1-3.284,0l-6.529-31.357c-.556-2.663,1.8-5.114,4.926-5.114" transform="translate(-137.529 65.178)" fill="#e33b21"/>
    </g>
  </g>
</svg>
